<svg width="22" height="32" viewBox="76 0 22 32" fill="none" xmlns="http://www.w3.org/2000/svg">
<path d="M81.4271 0.197301C81.359 0.134678 81.2777 0.0849432 81.188 0.051057C81.0982 0.0171707 81.0018 -0.00018395 80.9043 2.3936e-05C80.7994 -0.000777304 80.6955 0.0185457 80.5995 0.0567027L76.7992 1.46695C76.6717 1.52158 76.5639 1.60761 76.4886 1.71504C76.4134 1.82246 76.3736 1.94686 76.3739 2.07379L76.3691 29.9207C76.3695 30.0486 76.41 30.1738 76.4862 30.2818C76.5622 30.3899 76.6708 30.4764 76.7994 30.5314L80.599 31.9432C80.6948 31.9814 80.7989 32.0008 80.9038 32C81.0023 31.9993 81.0998 31.9812 81.1905 31.9467C81.2813 31.9121 81.3635 31.8618 81.4325 31.7986L93.0593 21.3622C93.162 21.269 93.2315 21.1506 93.2593 21.0219C93.2872 20.8932 93.2718 20.76 93.2155 20.6391C93.1591 20.5183 93.0641 20.4151 92.9425 20.3426C92.8208 20.2701 92.678 20.2316 92.532 20.2319L86.835 20.2307C86.6443 20.2309 86.461 20.2971 86.3234 20.4155L83.1491 23.2596C83.0462 23.355 82.9139 23.4205 82.7691 23.4477C82.6244 23.475 82.4739 23.4627 82.337 23.4124C82.2 23.3622 82.0831 23.2763 82.0011 23.1658C81.9191 23.0552 81.8759 22.9252 81.8769 22.7924L81.8803 9.19971C81.8796 9.06995 81.9215 8.94288 82.0008 8.83441C82.0801 8.72594 82.1933 8.6409 82.3262 8.58993C82.4592 8.53897 82.6058 8.52434 82.7479 8.54789C82.8901 8.57144 83.0213 8.63212 83.1252 8.72233L91.0132 15.8092C91.0818 15.8724 91.164 15.9226 91.2547 15.9568C91.3453 15.991 91.4428 16.0085 91.5411 16.0083L97.261 16.0095C97.4569 16.0096 97.6448 15.9399 97.7836 15.8157C97.9222 15.6915 98.0003 15.5229 98.0007 15.347C98.0014 15.2514 97.9787 15.1567 97.9342 15.0698C97.8896 14.983 97.8242 14.9059 97.7428 14.8442L97.079 14.2623L81.4271 0.197301Z" fill="#5342F2"/>
</svg>
