<svg width="98" height="32" viewBox="0 0 98 32" fill="none" xmlns="http://www.w3.org/2000/svg">
<g clip-path="url(#clip0_18727_17137)">
<g clip-path="url(#clip1_18727_17137)">
<path d="M66.2096 28.3885C66.4055 28.3879 66.5932 28.3174 66.7311 28.1927C66.8692 28.0679 66.9464 27.899 66.9458 27.7232L66.9522 10.4066C66.9531 10.2302 67.0317 10.0612 67.1708 9.93655C67.3099 9.81192 67.4982 9.74174 67.6948 9.74131L71.4967 9.7367C71.593 9.73649 71.6884 9.71911 71.7772 9.68557C71.8661 9.65204 71.9466 9.60302 72.0142 9.54134C72.0818 9.47965 72.1351 9.40654 72.1709 9.32624C72.2068 9.24594 72.2246 9.16005 72.2233 9.07354L72.2243 4.99812C72.2256 4.91179 72.2078 4.82608 72.1719 4.74599C72.1359 4.6659 72.0827 4.59302 72.0151 4.5316C71.9475 4.47019 71.867 4.42146 71.7782 4.38827C71.6895 4.35507 71.5943 4.33807 71.4981 4.33824L55.5577 4.33496C55.4616 4.33479 55.3664 4.35179 55.2776 4.38496C55.1889 4.41814 55.1082 4.46684 55.0406 4.52821C54.973 4.58959 54.9197 4.66242 54.8837 4.74248C54.8477 4.82254 54.8299 4.90822 54.8312 4.99453L54.8301 9.06995C54.8288 9.15645 54.8465 9.24233 54.8824 9.32262C54.9182 9.40291 54.9715 9.47603 55.0391 9.53773C55.1066 9.59943 55.1871 9.64849 55.2758 9.68208C55.3646 9.71567 55.46 9.73311 55.5564 9.73341L59.3582 9.73959C59.5548 9.7401 59.7431 9.81036 59.882 9.93505C60.0211 10.0598 60.0997 10.2288 60.1004 10.4052L60.098 27.7218C60.0974 27.8976 60.1746 28.0664 60.3125 28.1912C60.4505 28.316 60.638 28.3866 60.8338 28.3874L66.2096 28.3885Z" fill="#232332"/>
<path d="M81.4271 0.197301C81.359 0.134678 81.2777 0.0849432 81.188 0.051057C81.0982 0.0171707 81.0018 -0.00018395 80.9043 2.3936e-05C80.7994 -0.000777304 80.6955 0.0185457 80.5995 0.0567027L76.7992 1.46695C76.6717 1.52158 76.5639 1.60761 76.4886 1.71504C76.4134 1.82246 76.3736 1.94686 76.3739 2.07379L76.3691 29.9207C76.3695 30.0486 76.41 30.1738 76.4862 30.2818C76.5622 30.3899 76.6708 30.4764 76.7994 30.5314L80.599 31.9432C80.6948 31.9814 80.7989 32.0008 80.9038 32C81.0023 31.9993 81.0998 31.9812 81.1905 31.9467C81.2813 31.9121 81.3635 31.8618 81.4325 31.7986L93.0593 21.3622C93.162 21.269 93.2315 21.1506 93.2593 21.0219C93.2872 20.8932 93.2718 20.76 93.2155 20.6391C93.1591 20.5183 93.0641 20.4151 92.9425 20.3426C92.8208 20.2701 92.678 20.2316 92.532 20.2319L86.835 20.2307C86.6443 20.2309 86.461 20.2971 86.3234 20.4155L83.1491 23.2596C83.0462 23.355 82.9139 23.4205 82.7691 23.4477C82.6244 23.475 82.4739 23.4627 82.337 23.4124C82.2 23.3622 82.0831 23.2763 82.0011 23.1658C81.9191 23.0552 81.8759 22.9252 81.8769 22.7924L81.8803 9.19971C81.8796 9.06995 81.9215 8.94288 82.0008 8.83441C82.0801 8.72594 82.1933 8.6409 82.3262 8.58993C82.4592 8.53897 82.6058 8.52434 82.7479 8.54789C82.8901 8.57144 83.0213 8.63212 83.1252 8.72233L91.0132 15.8092C91.0818 15.8724 91.164 15.9226 91.2547 15.9568C91.3453 15.991 91.4428 16.0085 91.5411 16.0083L97.261 16.0095C97.4569 16.0096 97.6448 15.9399 97.7836 15.8157C97.9222 15.6915 98.0003 15.5229 98.0007 15.347C98.0014 15.2514 97.9787 15.1567 97.9342 15.0698C97.8896 14.983 97.8242 14.9059 97.7428 14.8442L97.079 14.2623L81.4271 0.197301Z" fill="#5342F2"/>
<path d="M56.9337 22.9908C57.1293 22.991 57.3171 23.0609 57.4554 23.1853C57.5938 23.3096 57.6714 23.4782 57.6714 23.6539L57.6703 27.7268C57.6747 27.8118 57.6599 27.8968 57.6268 27.9765C57.5937 28.0562 57.543 28.1291 57.4778 28.1909C57.4126 28.2526 57.3341 28.3019 57.2473 28.3357C57.1603 28.3696 57.0665 28.3873 56.9718 28.3879L43.6386 28.3851C43.5416 28.3852 43.4456 28.3681 43.3561 28.3348C43.2666 28.3016 43.1851 28.2528 43.1165 28.1913C43.0481 28.1298 42.9936 28.0567 42.9565 27.9763C42.9194 27.8959 42.9004 27.8098 42.9004 27.7227L42.9082 4.99875C42.9082 4.91167 42.9272 4.82544 42.9643 4.745C43.0014 4.66455 43.0559 4.59146 43.1245 4.5299C43.1931 4.46835 43.2745 4.41954 43.3641 4.38626C43.4536 4.35297 43.5498 4.33588 43.6468 4.33594L48.9958 4.33919C49.1929 4.33903 49.3821 4.40862 49.5225 4.53289C49.6628 4.65715 49.743 4.82607 49.7456 5.00303L49.7411 22.3225C49.7402 22.4987 49.8172 22.6681 49.9552 22.7935C50.093 22.919 50.2807 22.9902 50.477 22.9917L57.0136 22.993" fill="#232332"/>
<path d="M20.7134 8.81556C17.2407 4.33002 11.8841 4.32891 8.87932 4.32829L0.743976 4.32231C0.647577 4.32134 0.551903 4.33752 0.462509 4.36993C0.373114 4.40233 0.291744 4.45032 0.223115 4.5111C0.154486 4.57189 0.0999682 4.64429 0.0626692 4.72411C0.0253702 4.80393 0.00603916 4.88958 0.00581152 4.97614L0 27.7231C8.0839e-05 27.8098 0.0192528 27.8958 0.0564499 27.9758C0.093647 28.0559 0.148118 28.1286 0.216726 28.1898C0.285333 28.2509 0.366762 28.2992 0.456255 28.332C0.545749 28.3648 0.641547 28.3814 0.738198 28.3808L9.38037 28.3768C19.5493 28.3789 23.1707 22.8555 23.1723 16.2895C23.175 13.6578 22.5612 11.0906 20.7134 8.81556ZM9.78333 22.9845L7.59259 22.9805C7.39604 22.979 7.20815 22.9077 7.06987 22.7823C6.93158 22.6568 6.85413 22.4874 6.8544 22.3109L6.85742 10.3706C6.85383 10.2856 6.86946 10.2008 6.9033 10.1213C6.93714 10.0418 6.98851 9.96936 7.05436 9.90818C7.12022 9.847 7.19918 9.79841 7.28649 9.76533C7.37379 9.73226 7.46762 9.71538 7.56238 9.7157L9.82235 9.72407C12.8623 9.72469 14.2371 10.8619 15.0316 11.9348C15.9159 13.2828 16.3673 14.8242 16.336 16.3883C16.3352 19.8004 14.8852 22.9856 9.78333 22.9845Z" fill="#232332"/>
<path d="M25.4219 4.97979C25.422 4.89296 25.4412 4.80701 25.4785 4.72687C25.5157 4.64673 25.5701 4.57398 25.6387 4.51279C25.7073 4.45161 25.7889 4.40319 25.8783 4.37033C25.9678 4.33747 26.0637 4.32081 26.1604 4.3213L39.56 4.3316C39.7562 4.3324 39.944 4.40293 40.0823 4.52774C40.2206 4.65255 40.2983 4.82149 40.2983 4.99758L40.2972 9.05575C40.2993 9.14203 40.2823 9.22783 40.2471 9.30814C40.2119 9.38845 40.1592 9.46166 40.0922 9.52352C40.0251 9.58538 39.9451 9.63463 39.8567 9.66843C39.7682 9.70222 39.6732 9.71988 39.5771 9.72036L32.6973 9.72935C32.5005 9.73121 32.3124 9.80276 32.1741 9.92843C32.0358 10.0541 31.9584 10.2237 31.9587 10.4004L31.958 13.1955C31.9581 13.2823 31.9772 13.3682 32.0144 13.4483C32.0516 13.5284 32.1062 13.6011 32.1748 13.6622C32.2434 13.7234 32.3247 13.7717 32.4142 13.8045C32.5038 13.8373 32.5995 13.8538 32.6962 13.8532L39.3328 13.8499C39.4271 13.8468 39.5212 13.8609 39.6093 13.8913C39.6974 13.9217 39.7777 13.9679 39.8454 14.027C39.9131 14.0861 39.9667 14.1569 40.003 14.2351C40.0393 14.3134 40.0576 14.3974 40.0567 14.4821L40.0557 18.1956C40.0572 18.2819 40.0397 18.3677 40.0041 18.448C39.9683 18.5282 39.9153 18.6013 39.848 18.663C39.7806 18.7247 39.7003 18.7738 39.6117 18.8074C39.523 18.841 39.4278 18.8584 39.3316 18.8587L32.695 18.853C32.5983 18.8524 32.5024 18.8689 32.4129 18.9017C32.3235 18.9344 32.2419 18.9827 32.1733 19.0438C32.1047 19.1049 32.0502 19.1776 32.013 19.2577C31.9758 19.3378 31.9565 19.4237 31.9564 19.5105L31.9556 22.3063C31.9552 22.483 32.0325 22.6528 32.1708 22.7786C32.309 22.9044 32.4971 22.9761 32.6939 22.978L39.5737 22.9898C39.6698 22.9904 39.7648 23.008 39.8532 23.0419C39.9415 23.0757 40.0216 23.1249 40.0886 23.1868C40.1555 23.2486 40.2081 23.3218 40.2433 23.4021C40.2785 23.4824 40.2955 23.5681 40.2934 23.6544L40.2924 27.7126C40.2924 27.8886 40.2146 28.0575 40.0761 28.1822C39.9377 28.3069 39.75 28.3773 39.554 28.3779L26.1542 28.383C26.0576 28.3836 25.9618 28.367 25.8723 28.3343C25.7828 28.3015 25.7014 28.2531 25.6327 28.192C25.5641 28.1309 25.5098 28.0582 25.4726 27.9781C25.4354 27.898 25.4161 27.8121 25.416 27.7253L25.4219 4.97979Z" fill="#232332"/>
</g>
</g>
<defs>
<clipPath id="clip0_18727_17137">
<rect width="98" height="32" fill="white"/>
</clipPath>
<clipPath id="clip1_18727_17137">
<rect width="98" height="32" fill="white"/>
</clipPath>
</defs>
</svg>
